<?xml version="1.0" encoding="utf-8"?>
<!-- Generator: Adobe Illustrator 16.0.0, SVG Export Plug-In . SVG Version: 6.00 Build 0)  -->
<!DOCTYPE svg PUBLIC "-//W3C//DTD SVG 1.1//EN" "http://www.w3.org/Graphics/SVG/1.1/DTD/svg11.dtd">
<svg version="1.1" id="Layer_1" xmlns="http://www.w3.org/2000/svg" xmlns:xlink="http://www.w3.org/1999/xlink" x="0px" y="0px"
	 width="512px" height="512px" viewBox="0 0 512 512" enable-background="new 0 0 512 512" xml:space="preserve">
<path fill="#F2F2F2" d="M0,394.962c0,0,35.979-29.389,77.827-58.666c30.016-21.001,64.343-45.376,64.343-45.376
	c3.674-1.75,7.17-1.594,9.107,1.583l29.682,36.729v8.857L0,394.962z"/>
<path fill="#F2F2F2" d="M186.666,336.296L0,394.962c0,0,37.165-0.063,107.669,0c38.534,0.034,114.54-6.175,114.54-6.175
	c3.41-0.409,3.375-3.711,1.215-5.87L186.666,336.296z"/>
<polygon fill="#C9C9C9" points="0,394.962 180.959,338.089 180.959,329.233 "/>
<path fill="#E5E5E5" d="M405.515,369.769c0,6.388-5.225,10.167-11.665,8.44l-82.874-22.206c-6.443-1.726-11.665-8.305-11.665-14.691
	l11.665-49.516c0-6.387,5.222-10.167,11.665-8.44l59.542,15.954c6.442,1.727,11.667,8.304,11.667,14.692L405.515,369.769z"/>
<path fill="#F2F2F2" d="M512,348.714c0,6.388-5.225,10.167-11.666,8.44l-295.842-79.271c-6.443-1.726-11.666-8.305-11.666-14.691
	V109.15c0-6.389,5.222-10.167,11.666-8.441l295.842,79.271c6.441,1.726,11.666,8.304,11.666,14.692V348.714z"/>
<path fill="#47A1C9" d="M506.598,342.75c0,6.033-4.933,9.604-11.02,7.973l-286.277-76.707c-6.087-1.632-11.02-7.846-11.02-13.879
	V114.619c0-6.036,4.933-9.605,11.02-7.975l286.277,76.708c6.087,1.631,11.02,7.845,11.02,13.88V342.75z"/>
<path fill="#78BFD8" d="M221.218,277.209c5.182-68.392,22.946-110.096,159.88-83.679c60.481,11.668,100.42,35.435,125.503,67.371
	c0,0,0.736,29.467-0.004,83.938c0.33,9.317-11.02,5.884-11.02,5.884L221.218,277.209z"/>
<polygon fill="#F2F2F2" points="333.385,368.166 372.603,261.293 413.855,269.725 "/>
<polygon fill="#F2F2F2" points="366.353,260.016 333.385,368.166 328.325,251.667 "/>
<polygon fill="#C9C9C9" points="366.353,260.016 333.385,368.166 369.292,268.601 "/>
<path fill="#F2F2F2" d="M138.089,219.283c0,0,26.08-7.182,55.64-13.167c21.203-4.293,45.506-9.376,45.506-9.376
	c2.466-0.13,4.525,0.626,5.178,2.538l11.896,23.512l-1.397,4.276L138.089,219.283z"/>
<path fill="#F2F2F2" d="M258.596,227.311l-120.507-8.028c0,0,22.161,7.208,64.171,20.967c22.96,7.521,69.24,19.326,69.24,19.326
	c2.096,0.466,2.596-1.135,1.648-2.598L258.596,227.311z"/>
<polygon fill="#C9C9C9" points="138.089,219.283 254.912,227.065 256.309,222.79 "/>
</svg>
