<?xml version="1.0" encoding="utf-8"?>
<!-- Generator: Adobe Illustrator 16.0.0, SVG Export Plug-In . SVG Version: 6.00 Build 0)  -->
<!DOCTYPE svg PUBLIC "-//W3C//DTD SVG 1.1//EN" "http://www.w3.org/Graphics/SVG/1.1/DTD/svg11.dtd">
<svg version="1.1" id="Layer_1" xmlns="http://www.w3.org/2000/svg" xmlns:xlink="http://www.w3.org/1999/xlink" x="0px" y="0px"
	 width="512px" height="512px" viewBox="0 0 512 512" enable-background="new 0 0 512 512" xml:space="preserve">
<path fill="#E5E5E5" d="M341.4,401.895c0,10.345-8.39,18.731-18.732,18.731H189.597c-10.345,0-18.731-8.388-18.731-18.731
	l18.731-85.25c0-10.346,8.387-18.731,18.732-18.731h95.606c10.347,0,18.732,8.387,18.732,18.731L341.4,401.895z"/>
<path fill="#F2F2F2" d="M512.389,321.589c0,10.345-8.389,18.731-18.731,18.731H18.612c-10.346,0-18.732-8.387-18.732-18.731V72.122
	c0-10.346,8.386-18.732,18.732-18.732h475.044c10.344,0,18.731,8.386,18.731,18.732L512.389,321.589L512.389,321.589z"/>
<path fill="#47A1C9" d="M503.715,314.273c0,9.771-7.924,17.694-17.695,17.694H26.334c-9.773,0-17.695-7.923-17.695-17.694V78.611
	c0-9.774,7.921-17.696,17.695-17.696H486.02c9.771,0,17.695,7.922,17.695,17.696V314.273z"/>
<path fill="#78BFD8" d="M45.472,331.969c8.321-113.007,36.843-188.254,256.726-204.895c97.114-7.349,161.246,13.81,201.522,54.644
	c0,0,1.183,47.401-0.006,135.939c0.529,14.946-17.695,14.312-17.695,14.312H45.472z"/>
<path fill="#333333" d="M8.639,78.611c0-9.774,7.921-17.696,17.695-17.696H486.02c9.771,0,17.695,7.922,17.695,17.696"/>
<circle fill="#FD1A16" cx="29.405" cy="69.764" r="4.813"/>
<circle fill="#FFE610" cx="42.152" cy="69.764" r="4.813"/>
<circle fill="#80C41C" cx="55.681" cy="69.764" r="4.813"/>
<rect x="8.761" y="79.392" fill="#4D4D4D" width="495.075" height="28.055"/>
<path fill="#FFE610" d="M112.522,91.447c0,1.938-1.572,3.512-3.512,3.512H28.104c-1.94,0-3.512-1.573-3.512-3.512l0,0
	c0-1.94,1.572-3.512,3.512-3.512h80.906C110.95,87.935,112.522,89.507,112.522,91.447L112.522,91.447z"/>
<path fill="#FFE610" d="M178.864,91.447c0,1.938-1.573,3.512-3.512,3.512h-49.686c-1.94,0-3.512-1.573-3.512-3.512l0,0
	c0-1.94,1.572-3.512,3.512-3.512h49.686C177.291,87.935,178.864,89.507,178.864,91.447L178.864,91.447z"/>
<text transform="matrix(1 0 0 1 158.5088 257)" fill="#FFFFFF" font-family="'Montserrat-Regular'" font-size="140">&lt;/&gt;</text>
</svg>
