<?xml version="1.0" encoding="utf-8"?>
<!-- Generator: Adobe Illustrator 16.0.0, SVG Export Plug-In . SVG Version: 6.00 Build 0)  -->
<!DOCTYPE svg PUBLIC "-//W3C//DTD SVG 1.1//EN" "http://www.w3.org/Graphics/SVG/1.1/DTD/svg11.dtd">
<svg version="1.1" id="Layer_1" xmlns="http://www.w3.org/2000/svg" xmlns:xlink="http://www.w3.org/1999/xlink" x="0px" y="0px"
	 width="512px" height="512px" viewBox="0 0 512 512" enable-background="new 0 0 512 512" xml:space="preserve">
<path fill="#E5E5E5" d="M341.4,401.894c0,10.345-8.389,18.732-18.732,18.732H189.597c-10.345,0-18.731-8.388-18.731-18.732
	l18.731-85.25c0-10.345,8.387-18.731,18.732-18.731h95.607c10.346,0,18.732,8.387,18.732,18.731L341.4,401.894z"/>
<path fill="#F2F2F2" d="M512.389,321.589c0,10.345-8.389,18.731-18.732,18.731H18.612c-10.346,0-18.732-8.387-18.732-18.731V72.122
	c0-10.346,8.386-18.732,18.732-18.732h475.044c10.344,0,18.732,8.386,18.732,18.732V321.589z"/>
<path fill="#47A1C9" d="M503.715,314.273c0,9.772-7.924,17.695-17.695,17.695H26.334c-9.773,0-17.695-7.923-17.695-17.695V78.611
	c0-9.774,7.921-17.696,17.695-17.696H486.02c9.771,0,17.695,7.922,17.695,17.696V314.273z"/>
<path fill="#78BFD8" d="M45.472,331.969c8.321-113.007,36.843-188.254,256.726-204.895c97.115-7.349,161.246,13.81,201.523,54.644
	c0,0,1.182,47.401-0.006,135.939c0.529,14.947-17.695,14.312-17.695,14.312H45.472z"/>
<path fill="#E5E5E5" d="M484.434,452.047c0,10.347-8.387,18.733-18.732,18.733h-79.836c-10.346,0-18.732-8.387-18.732-18.733
	V237.616c0-10.345,8.387-18.732,18.732-18.732h79.836c10.346,0,18.732,8.387,18.732,18.732V452.047z"/>
<path fill="#00A0C6" d="M477.598,431.92c0,9.139-7.408,16.549-16.549,16.549h-70.531c-9.139,0-16.549-7.41-16.549-16.549V242.477
	c0-9.139,7.41-16.549,16.549-16.549h70.531c9.141,0,16.549,7.41,16.549,16.549V431.92z"/>
<path fill="#47A1C9" d="M434.354,459.741c-0.182,5.566-2.334,7.911-8.572,8.573c-4.102,0.433-8.82-3.573-8.57-8.573
	c0.234-4.726,0.197-7.938,8.57-8.571C432.668,450.65,434.527,454.471,434.354,459.741z"/>
<path fill="#333333" d="M8.639,78.611c0-9.774,7.921-17.696,17.695-17.696H486.02c9.771,0,17.695,7.922,17.695,17.696"/>
<circle fill="#FD1A16" cx="29.405" cy="69.764" r="4.813"/>
<circle fill="#FFE610" cx="42.152" cy="69.764" r="4.813"/>
<circle fill="#80C41C" cx="55.681" cy="69.764" r="4.813"/>
<rect x="8.761" y="79.392" fill="#4D4D4D" width="495.075" height="28.055"/>
<path fill="#333333" d="M373.967,242.477c0-9.139,7.41-16.549,16.549-16.549h70.533c9.139,0,16.549,7.41,16.549,16.549"/>
<rect x="373.969" y="242.477" fill="#4D4D4D" width="103.629" height="22.629"/>
<path fill="#FFE610" d="M112.522,91.447c0,1.939-1.572,3.512-3.512,3.512H28.104c-1.94,0-3.512-1.573-3.512-3.512l0,0
	c0-1.94,1.572-3.512,3.512-3.512h80.906C110.95,87.935,112.522,89.507,112.522,91.447L112.522,91.447z"/>
<path fill="#FFE610" d="M178.864,91.447c0,1.939-1.573,3.512-3.512,3.512h-49.686c-1.94,0-3.512-1.573-3.512-3.512l0,0
	c0-1.94,1.572-3.512,3.512-3.512h49.686C177.291,87.935,178.864,89.507,178.864,91.447L178.864,91.447z"/>
<path fill="#FFE610" d="M421.434,253.528c0,0.887-0.719,1.605-1.604,1.605h-36.949c-0.889,0-1.605-0.718-1.605-1.605l0,0
	c0-0.885,0.717-1.603,1.605-1.603h36.949C420.715,251.925,421.434,252.643,421.434,253.528L421.434,253.528z"/>
<path fill="#FFE610" d="M451.729,253.528c0,0.887-0.715,1.605-1.604,1.605h-22.689c-0.887,0-1.605-0.718-1.605-1.605l0,0
	c0-0.885,0.719-1.603,1.605-1.603h22.689C451.014,251.925,451.729,252.643,451.729,253.528L451.729,253.528z"/>
<path fill="#FFFFFF" d="M407.178,235.805c0,0.887-0.721,1.604-1.607,1.604h-22.689c-0.887,0-1.605-0.717-1.605-1.604l0,0
	c0-0.885,0.719-1.603,1.605-1.603h22.689C406.457,234.202,407.178,234.92,407.178,235.805L407.178,235.805z"/>
<path fill="#FFFFFF" d="M470.787,235.805c0,0.887-0.719,1.604-1.607,1.604h-13.322c-0.887,0-1.604-0.717-1.604-1.604l0,0
	c0-0.885,0.717-1.603,1.604-1.603h13.322C470.068,234.202,470.787,234.92,470.787,235.805L470.787,235.805z"/>
<path fill="#78BFD8" d="M373.969,331.973c1.639-22.262,20.506-37.105,63.824-40.383c19.135-1.447,31.766,2.721,39.701,10.766
	c0,0,0.232,113.502,0,130.945c0,7.415-6.529,15.168-16.445,15.168c-21.549,0-66.77,0-70.531,0c-7.75,0-16.549-5.217-16.549-16.549
	C373.969,399.072,373.969,331.973,373.969,331.973z"/>
</svg>
